<svg width="256" height="256" viewBox="0 0 256 256" xmlns="http://www.w3.org/2000/svg"><title>icon</title><g fill="none" fill-rule="evenodd"><path fill="#FF5900" d="M0 0h256v256H0z"/><g fill="#FFF"><path d="M169.377 126.898c-2.245-.641-3.849-1.282-2.886-4.166 2.566-6.73 2.886-12.498 0-16.664-5.453-7.69-20.529-7.37-37.529-.32 0 0-5.453 2.243-3.849-1.923 2.566-8.332 2.245-15.702-1.924-19.548-9.302-9.293-34 .32-55.17 21.47C52.302 121.45 43 138.115 43 152.856c0 27.88 35.604 44.863 70.566 44.863 45.868 0 76.34-26.598 76.34-47.748 0-12.818-10.906-20.188-20.529-23.072zm-55.811 60.566c-27.906 2.884-51.962-9.934-53.887-28.2-1.924-18.266 19.246-35.25 47.151-38.134 27.906-2.885 51.962 9.934 53.887 28.2 1.925 18.265-19.245 35.25-47.151 38.134zm86.283-111.519c-10.906-12.177-27.264-16.984-42.34-13.78-3.528.642-5.773 4.167-4.81 7.692.64 3.525 4.169 5.768 7.697 4.807 10.585-2.244 22.453.961 30.151 9.613 7.698 8.653 9.944 20.51 6.736 31.084-.962 3.525.642 7.05 4.17 8.012 3.528.961 7.056-.641 8.019-4.166 4.49-14.42 1.603-31.084-9.623-43.262zm-17 15.382c-5.453-6.088-13.472-8.332-20.528-6.73-2.887.642-4.812 3.526-4.17 6.73.641 2.884 3.528 4.807 6.736 4.166 3.528-.64 7.377.32 10.264 3.205 2.566 2.884 3.207 7.05 2.245 10.254-.962 2.884.642 6.089 3.529 7.05 2.886.962 6.094-.64 7.056-3.525 1.604-7.05.32-15.382-5.132-21.15z"/><path d="M116.453 135.23c-13.151-3.525-28.227 3.204-34 14.74-5.774 11.857-.32 24.996 13.15 29.482 13.793 4.487 30.152-2.243 35.925-15.382 5.774-12.177-1.283-25.315-15.075-28.84zm-9.944 30.443c-2.566 4.166-8.34 6.088-12.83 4.166-4.17-1.923-5.453-7.05-2.887-11.216 2.566-4.166 8.34-6.089 12.51-4.166 4.49 1.923 5.773 7.05 3.207 11.216zm8.66-11.216c-.961 1.602-3.207 2.563-4.81 1.923-1.604-.641-2.246-2.564-1.284-4.166.963-1.603 2.887-2.564 4.812-1.923 1.604.64 2.245 2.564 1.283 4.166z"/></g></g></svg>