<svg width="1255" height="282" viewBox="0 0 1255 282" xmlns="http://www.w3.org/2000/svg"><title>website-title</title><g fill="none" fill-rule="evenodd"><path d="M459.457 40.411c-3.179-2.583-6.357-4.495-9.536-5.736-3.179-1.242-6.258-1.863-9.238-1.863-3.775 0-6.854.894-9.238 2.682-2.384 1.788-3.576 4.122-3.576 7.003 0 1.987.596 3.626 1.788 4.917 1.192 1.291 2.756 2.409 4.694 3.352 1.937.944 4.122 1.764 6.555 2.459a174.08 174.08 0 0 1 7.227 2.235c9.536 3.179 16.514 7.425 20.935 12.74 4.42 5.314 6.63 12.242 6.63 20.785 0 5.761-.968 10.976-2.905 15.645-1.938 4.669-4.768 8.667-8.493 11.995-3.726 3.327-8.295 5.91-13.709 7.748-5.413 1.837-11.547 2.756-18.401 2.756-14.205 0-27.366-4.222-39.485-12.665l12.516-23.542c4.37 3.874 8.692 6.755 12.963 8.642 4.271 1.887 8.493 2.831 12.665 2.831 4.768 0 8.32-1.093 10.654-3.278 2.334-2.185 3.501-4.669 3.501-7.45 0-1.689-.298-3.154-.894-4.395-.596-1.242-1.59-2.384-2.98-3.428-1.39-1.043-3.203-2.011-5.438-2.905-2.236-.894-4.942-1.887-8.121-2.98a163.028 163.028 0 0 1-11.1-3.949c-3.626-1.44-6.854-3.352-9.685-5.736-2.832-2.384-5.116-5.389-6.854-9.014-1.739-3.626-2.608-8.22-2.608-13.783 0-5.563.919-10.604 2.756-15.123 1.838-4.52 4.42-8.394 7.749-11.622 3.327-3.229 7.4-5.737 12.217-7.525 4.818-1.788 10.207-2.682 16.167-2.682 5.563 0 11.374.77 17.433 2.31a76.89 76.89 0 0 1 17.433 6.779l-11.622 22.797zm50.27 7.152V124h-26.97V47.563h26.97zM480.97 18.21c0-2.086.397-4.048 1.192-5.886a15.457 15.457 0 0 1 8.12-8.12c1.838-.795 3.8-1.192 5.886-1.192 2.086 0 4.047.397 5.885 1.192a15.457 15.457 0 0 1 8.12 8.12c.795 1.838 1.193 3.8 1.193 5.886 0 2.086-.398 4.048-1.192 5.886a15.457 15.457 0 0 1-8.121 8.12c-1.838.795-3.8 1.192-5.885 1.192-2.087 0-4.048-.397-5.886-1.192a15.457 15.457 0 0 1-8.12-8.12c-.795-1.838-1.192-3.8-1.192-5.886zm38.498 29.353h26.969v9.685c3.675-4.47 7.4-7.475 11.175-9.014 3.775-1.54 8.195-2.31 13.261-2.31 5.364 0 9.958.87 13.783 2.608 3.824 1.738 7.077 4.196 9.759 7.375 2.185 2.583 3.675 5.463 4.47 8.642.795 3.179 1.192 6.804 1.192 10.877V124h-26.969V85.409c0-3.775-.273-6.83-.82-9.163-.546-2.335-1.514-4.197-2.905-5.588-1.192-1.192-2.533-2.036-4.023-2.533-1.49-.497-3.08-.745-4.768-.745-4.57 0-8.07 1.366-10.504 4.098-2.434 2.731-3.651 6.63-3.651 11.696V124h-26.969V47.563zm115.234 37.995c0 2.483.447 4.793 1.34 6.928.895 2.136 2.111 3.999 3.651 5.588 1.54 1.59 3.377 2.831 5.513 3.725 2.136.894 4.445 1.341 6.929 1.341 2.384 0 4.643-.447 6.779-1.341 2.136-.894 3.973-2.136 5.513-3.725a19.26 19.26 0 0 0 3.725-5.513c.944-2.086 1.416-4.321 1.416-6.705 0-2.384-.472-4.644-1.416-6.78-.944-2.135-2.185-3.998-3.725-5.587-1.54-1.59-3.377-2.831-5.513-3.725-2.136-.894-4.395-1.341-6.78-1.341-2.483 0-4.792.447-6.928 1.341-2.136.894-3.973 2.136-5.513 3.725a18.36 18.36 0 0 0-3.65 5.438c-.894 2.037-1.341 4.247-1.341 6.631zm33.972-37.995h27.118V124h-27.118v-8.493c-5.762 7.251-13.56 10.877-23.393 10.877-5.563 0-10.679-1.018-15.347-3.055a37.011 37.011 0 0 1-12.218-8.567c-3.477-3.675-6.184-7.996-8.121-12.963-1.937-4.967-2.905-10.38-2.905-16.241 0-5.463.943-10.653 2.83-15.57 1.888-4.918 4.52-9.214 7.898-12.889 3.377-3.675 7.4-6.58 12.069-8.716 4.668-2.136 9.833-3.204 15.496-3.204 9.536 0 17.432 3.328 23.69 9.983v-7.599zm99.943-35.909l19.37 72.563 23.84-72.563h23.244l23.84 72.563 19.37-72.563h30.545L875.3 124h-29.8l-22.052-65.113L801.397 124h-29.8L738.072 11.654h30.545zm191.521 63.027c-.894-3.775-2.732-6.804-5.513-9.089-2.781-2.285-6.159-3.427-10.132-3.427-4.172 0-7.574 1.093-10.206 3.278-2.633 2.185-4.297 5.265-4.992 9.238h30.843zM928.55 90.326c0 11.622 5.463 17.433 16.39 17.433 5.86 0 10.281-2.384 13.261-7.152h26.075c-5.265 17.483-18.426 26.224-39.485 26.224-6.457 0-12.367-.968-17.73-2.906-5.365-1.937-9.96-4.693-13.783-8.269-3.825-3.576-6.78-7.847-8.866-12.814-2.086-4.967-3.129-10.53-3.129-16.688 0-6.357.993-12.094 2.98-17.21 1.987-5.115 4.818-9.461 8.493-13.037 3.675-3.576 8.12-6.332 13.336-8.27 5.215-1.937 11.1-2.905 17.656-2.905 6.457 0 12.268.968 17.433 2.906 5.165 1.937 9.536 4.743 13.112 8.418 3.576 3.675 6.308 8.17 8.195 13.484 1.887 5.315 2.831 11.3 2.831 17.955v2.831H928.55zm90.35-42.763V124h-26.968V47.563h26.969zM990.145 18.21c0-2.086.397-4.048 1.192-5.886a15.457 15.457 0 0 1 8.12-8.12c1.838-.795 3.8-1.192 5.886-1.192 2.086 0 4.047.397 5.885 1.192a15.457 15.457 0 0 1 8.12 8.12c.795 1.838 1.193 3.8 1.193 5.886 0 2.086-.398 4.048-1.192 5.886a15.457 15.457 0 0 1-8.12 8.12c-1.839.795-3.8 1.192-5.886 1.192-2.086 0-4.048-.397-5.886-1.192a15.457 15.457 0 0 1-8.12-8.12c-.795-1.838-1.192-3.8-1.192-5.886zm99.44 67.795c0-2.384-.448-4.644-1.342-6.78a17.215 17.215 0 0 0-3.725-5.587 18.521 18.521 0 0 0-5.513-3.8c-2.086-.943-4.37-1.415-6.854-1.415-2.384 0-4.619.447-6.705 1.341a16.58 16.58 0 0 0-5.438 3.725c-1.54 1.59-2.782 3.452-3.725 5.587a16.589 16.589 0 0 0-1.416 6.78c0 2.384.447 4.619 1.341 6.705a16.58 16.58 0 0 0 3.725 5.438c1.59 1.54 3.452 2.782 5.588 3.726a16.589 16.589 0 0 0 6.78 1.415c2.383 0 4.618-.447 6.704-1.341a16.58 16.58 0 0 0 5.439-3.725 19.26 19.26 0 0 0 3.725-5.513 15.73 15.73 0 0 0 1.415-6.556zM1055.61.33v54.832c6.357-6.655 14.304-9.983 23.84-9.983 5.662 0 10.852 1.068 15.57 3.203 4.719 2.136 8.742 5.017 12.07 8.643 3.327 3.625 5.935 7.896 7.822 12.813 1.887 4.918 2.831 10.157 2.831 15.72 0 5.662-.968 10.976-2.905 15.943-1.937 4.967-4.644 9.288-8.12 12.963-3.478 3.675-7.575 6.58-12.293 8.716-4.719 2.136-9.81 3.204-15.273 3.204-9.933 0-17.78-3.626-23.542-10.877V124h-26.969V.33h26.97zm94.225 85.079c0 2.583.471 4.942 1.415 7.078.944 2.135 2.185 3.998 3.725 5.587 1.54 1.59 3.377 2.831 5.513 3.725 2.136.894 4.396 1.341 6.78 1.341 2.384 0 4.643-.447 6.78-1.341 2.135-.894 3.972-2.136 5.512-3.725 1.54-1.59 2.781-3.452 3.725-5.587.944-2.136 1.416-4.446 1.416-6.929 0-2.384-.472-4.644-1.416-6.78-.944-2.135-2.185-3.998-3.725-5.587-1.54-1.59-3.377-2.831-5.513-3.725-2.136-.894-4.395-1.341-6.78-1.341-2.383 0-4.643.447-6.779 1.341-2.136.894-3.973 2.136-5.513 3.725a19.26 19.26 0 0 0-3.725 5.513c-.944 2.086-1.415 4.321-1.415 6.705zm-28.46-.298c0-5.662 1.143-10.951 3.428-15.868 2.284-4.918 5.463-9.189 9.536-12.814 4.072-3.626 8.915-6.482 14.527-8.568 5.612-2.086 11.746-3.129 18.402-3.129 6.556 0 12.64 1.018 18.252 3.054 5.612 2.037 10.48 4.868 14.602 8.493a38.093 38.093 0 0 1 9.61 12.964c2.285 5.016 3.428 10.554 3.428 16.613 0 6.06-1.168 11.597-3.502 16.614-2.334 5.016-5.538 9.337-9.61 12.963-4.073 3.625-8.965 6.431-14.677 8.418-5.712 1.987-11.895 2.98-18.55 2.98-6.556 0-12.616-.993-18.178-2.98-5.563-1.987-10.356-4.818-14.379-8.493-4.023-3.675-7.177-8.07-9.461-13.187-2.285-5.115-3.427-10.802-3.427-17.06zm-694.401 81.543v87.612h35.015V279H397.77V166.654h29.204zm65.766 35.909V279h-26.97v-76.437h26.97zm-28.757-29.353c0-2.086.397-4.048 1.192-5.886a15.457 15.457 0 0 1 8.12-8.12c1.838-.795 3.8-1.192 5.886-1.192 2.086 0 4.047.397 5.885 1.192a15.457 15.457 0 0 1 8.12 8.12c.795 1.838 1.193 3.8 1.193 5.886 0 2.086-.398 4.048-1.192 5.885a15.457 15.457 0 0 1-8.121 8.121c-1.838.795-3.8 1.192-5.885 1.192-2.087 0-4.048-.397-5.886-1.192a15.457 15.457 0 0 1-8.12-8.12c-.795-1.838-1.192-3.8-1.192-5.886zm65.467-17.88v74.798l28.31-27.565h36.952l-38.293 35.313L596.948 279h-37.846l-29.651-31.141V279h-26.969V155.33h26.969zm119.555 74.351c-.894-3.775-2.732-6.804-5.513-9.089-2.782-2.285-6.16-3.427-10.132-3.427-4.172 0-7.575 1.093-10.207 3.278-2.632 2.185-4.296 5.265-4.991 9.238h30.843zm-31.588 15.645c0 11.622 5.463 17.433 16.39 17.433 5.86 0 10.28-2.384 13.26-7.152h26.076c-5.265 17.483-18.427 26.224-39.485 26.224-6.457 0-12.367-.968-17.731-2.906-5.365-1.937-9.959-4.693-13.783-8.269-3.824-3.576-6.78-7.847-8.865-12.814-2.086-4.967-3.13-10.53-3.13-16.688 0-6.357.994-12.094 2.98-17.21 1.987-5.115 4.818-9.461 8.494-13.037 3.675-3.576 8.12-6.332 13.335-8.27 5.215-1.937 11.1-2.905 17.657-2.905 6.456 0 12.267.968 17.433 2.905 5.165 1.938 9.536 4.744 13.112 8.419 3.576 3.675 6.307 8.17 8.195 13.484 1.887 5.315 2.83 11.3 2.83 17.955v2.831h-56.768zm137.044 11.026h6.407c7.35 0 12.615-.944 15.794-2.831 3.178-1.887 4.768-4.917 4.768-9.089 0-4.172-1.59-7.202-4.768-9.089-3.18-1.887-8.444-2.831-15.794-2.831h-6.407v23.84zm0-45.594h5.364c9.138 0 13.708-3.626 13.708-10.877 0-7.251-4.57-10.877-13.708-10.877h-5.364v21.754zm-29.204-44.104h43.508c10.33 0 18.178 2.483 23.542 7.45 5.364 4.967 8.046 12.119 8.046 21.456 0 5.662-1.019 10.355-3.055 14.08-2.036 3.726-5.14 6.88-9.312 9.462 4.172.795 7.723 2.011 10.653 3.65 2.93 1.64 5.314 3.651 7.152 6.035 1.838 2.384 3.154 5.066 3.949 8.046.794 2.98 1.192 6.159 1.192 9.536 0 5.265-.92 9.933-2.757 14.006-1.838 4.073-4.42 7.5-7.748 10.281-3.328 2.781-7.375 4.867-12.143 6.258-4.768 1.39-10.132 2.086-16.092 2.086h-46.935V166.654zm118.81 35.909v43.061c0 9.437 4.568 14.155 13.707 14.155 9.139 0 13.708-4.718 13.708-14.155v-43.061h26.97v48.276c0 10.33-3.403 18.079-10.207 23.244-6.805 5.165-16.962 7.748-30.47 7.748-13.51 0-23.667-2.583-30.471-7.748-6.805-5.165-10.207-12.913-10.207-23.244v-48.276h26.97zm94.075 22.499V279h-26.97v-53.938h-8.94v-22.499h8.94v-22.946h26.97v22.946h15.347v22.499h-15.347zm50.865 0V279H962.04v-53.938h-8.94v-22.499h8.94v-22.946h26.97v22.946h15.346v22.499h-15.347zm43.565 15.347c0 2.583.471 4.942 1.415 7.078.944 2.135 2.185 3.998 3.725 5.587 1.54 1.59 3.377 2.831 5.513 3.725 2.136.894 4.396 1.341 6.78 1.341 2.384 0 4.643-.447 6.78-1.341 2.135-.894 3.972-2.136 5.512-3.725 1.54-1.59 2.781-3.452 3.725-5.588.944-2.135 1.416-4.445 1.416-6.928 0-2.384-.472-4.644-1.416-6.78-.944-2.135-2.185-3.998-3.725-5.587-1.54-1.59-3.377-2.831-5.513-3.725-2.136-.894-4.395-1.341-6.78-1.341-2.383 0-4.643.447-6.779 1.341-2.136.894-3.973 2.136-5.513 3.725a19.26 19.26 0 0 0-3.725 5.513c-.944 2.086-1.415 4.321-1.415 6.705zm-28.46-.298c0-5.662 1.143-10.951 3.428-15.868 2.284-4.918 5.463-9.189 9.536-12.814 4.072-3.626 8.915-6.482 14.527-8.568 5.612-2.086 11.746-3.129 18.402-3.129 6.556 0 12.64 1.018 18.252 3.054 5.612 2.037 10.48 4.868 14.602 8.494a38.08 38.08 0 0 1 9.61 12.963c2.285 5.016 3.428 10.554 3.428 16.613 0 6.06-1.168 11.597-3.502 16.613-2.334 5.017-5.538 9.338-9.61 12.964-4.073 3.625-8.965 6.431-14.677 8.418-5.712 1.987-11.895 2.98-18.55 2.98-6.556 0-12.616-.993-18.178-2.98-5.563-1.987-10.356-4.818-14.379-8.493-4.023-3.675-7.177-8.07-9.461-13.187-2.285-5.115-3.427-10.802-3.427-17.06zm98.546-37.548h26.97v9.685c3.674-4.47 7.4-7.475 11.174-9.014 3.775-1.54 8.195-2.31 13.261-2.31 5.364 0 9.958.87 13.783 2.607 3.824 1.739 7.077 4.197 9.76 7.376 2.184 2.583 3.674 5.463 4.47 8.642.794 3.179 1.191 6.804 1.191 10.877V279H1156.3v-38.591c0-3.775-.273-6.83-.82-9.163-.546-2.335-1.514-4.197-2.905-5.588-1.192-1.192-2.533-2.036-4.023-2.533-1.49-.497-3.08-.745-4.768-.745-4.57 0-8.07 1.366-10.504 4.097-2.434 2.732-3.65 6.631-3.65 11.697V279h-26.97v-76.437zm140.862 19.668c-4.967-2.583-9.834-3.874-14.602-3.874-2.484 0-4.495.497-6.035 1.49s-2.31 2.334-2.31 4.023c0 .894.125 1.614.373 2.16.248.547.795 1.068 1.64 1.565.843.497 2.085.944 3.724 1.341 1.64.397 3.8.894 6.482 1.49 7.45 1.49 13.012 4.147 16.688 7.972 3.675 3.824 5.513 8.716 5.513 14.676 0 4.47-.894 8.493-2.682 12.069a25.668 25.668 0 0 1-7.45 9.015c-3.18 2.433-7.003 4.32-11.473 5.661-4.47 1.342-9.387 2.012-14.751 2.012-10.331 0-20.513-2.93-30.545-8.791l9.834-19.072c7.549 5.165 14.7 7.748 21.456 7.748 2.483 0 4.52-.546 6.109-1.639 1.589-1.093 2.384-2.483 2.384-4.172 0-.993-.125-1.813-.373-2.459-.248-.645-.77-1.241-1.564-1.787-.795-.547-1.962-1.043-3.502-1.49-1.54-.448-3.551-.92-6.034-1.416-8.344-1.689-14.18-4.197-17.508-7.524-3.328-3.328-4.991-7.922-4.991-13.783 0-4.271.794-8.12 2.384-11.547 1.589-3.428 3.874-6.333 6.854-8.717 2.98-2.384 6.58-4.222 10.802-5.513 4.222-1.291 8.915-1.937 14.08-1.937 8.444 0 16.639 1.639 24.586 4.917l-9.09 17.582z" fill="#F00"/><g fill="#FF5900"><path d="M252.755 136.795c-4.49-1.281-7.698-2.563-5.774-8.331 5.132-13.46 5.774-24.996 0-33.328-10.906-15.381-41.056-14.74-75.056-.64 0 0-10.906 4.486-7.699-3.846 5.132-16.664 4.491-31.405-3.849-39.095-18.603-18.587-68 .64-110.34 42.94C18.605 125.9 0 159.227 0 188.71c0 55.76 71.208 89.727 141.132 89.727 91.736 0 152.68-53.195 152.68-95.495 0-25.636-21.812-40.377-41.057-46.146zM141.132 257.927c-55.811 5.768-103.924-19.868-107.774-56.4-3.849-36.532 38.491-70.5 94.302-76.268 55.812-5.768 103.925 19.868 107.774 56.4 3.849 36.532-38.49 70.5-94.302 76.268zM313.698 34.891C291.887 10.536 259.17.923 229.018 7.33c-7.056 1.283-11.546 8.333-9.622 15.383 1.283 7.05 8.34 11.536 15.396 9.613 21.17-4.486 44.906 1.923 60.302 19.228 15.397 17.304 19.887 41.018 13.472 62.168-1.924 7.05 1.283 14.1 8.34 16.022 7.056 1.923 14.113-1.281 16.037-8.331 8.982-28.841 3.208-62.169-19.245-86.523zm-34 30.764c-10.906-12.178-26.943-16.664-41.056-13.46-5.774 1.282-9.623 7.05-8.34 13.46 1.283 5.768 7.056 9.613 13.472 8.331 7.056-1.281 14.754.641 20.528 6.41 5.132 5.768 6.415 14.1 4.49 20.509-1.924 5.768 1.283 12.177 7.057 14.1 5.774 1.922 12.189-1.282 14.113-7.05 3.208-14.1.642-30.764-10.264-42.3z"/><path d="M146.906 153.46c-26.302-7.05-56.453 6.408-68 29.48-11.548 23.715-.642 49.992 26.302 58.965 27.584 8.972 60.301-4.487 71.849-30.764 11.547-24.355-2.566-50.632-30.151-57.682zm-19.887 60.885c-5.132 8.332-16.68 12.178-25.66 8.332-8.34-3.845-10.906-14.1-5.774-22.432 5.132-8.331 16.68-12.177 25.019-8.331 8.98 3.845 11.547 14.1 6.415 22.431zm17.32-22.431c-1.924 3.204-6.414 5.127-9.622 3.845-3.208-1.282-4.49-5.127-2.566-8.332 1.924-3.204 5.774-5.127 9.623-3.845 3.207 1.282 4.49 5.127 2.566 8.332z"/></g></g></svg>